<?xml version="1.0" encoding="UTF-8" standalone="no"?>
<!-- Created with Inkscape (http://www.inkscape.org/) -->

<svg
   xmlns:dc="http://purl.org/dc/elements/1.1/"
   xmlns:cc="http://creativecommons.org/ns#"
   xmlns:rdf="http://www.w3.org/1999/02/22-rdf-syntax-ns#"
   xmlns:svg="http://www.w3.org/2000/svg"
   xmlns="http://www.w3.org/2000/svg"
   xmlns:xlink="http://www.w3.org/1999/xlink"
   xmlns:sodipodi="http://sodipodi.sourceforge.net/DTD/sodipodi-0.dtd"
   xmlns:inkscape="http://www.inkscape.org/namespaces/inkscape"
   width="253.04144mm"
   height="212.6364mm"
   viewBox="0 0 253.04145 212.63641"
   version="1.1"
   id="svg8"
   inkscape:version="0.92.2 5c3e80d, 2017-08-06"
   sodipodi:docname="stawkyard.svg"
   inkscape:export-filename="/home/thoth/git/stawkyard-assets/output/stawkyard.png"
   inkscape:export-xdpi="71.971611"
   inkscape:export-ydpi="71.971611">
  <defs
     id="defs2">
    <inkscape:path-effect
       is_visible="true"
       id="path-effect872"
       effect="spiro" />
    <inkscape:path-effect
       effect="spiro"
       id="path-effect862"
       is_visible="true" />
    <inkscape:path-effect
       is_visible="true"
       id="path-effect858"
       effect="spiro" />
    <inkscape:path-effect
       effect="spiro"
       id="path-effect854"
       is_visible="true" />
    <inkscape:path-effect
       is_visible="true"
       id="path-effect850"
       effect="spiro" />
    <inkscape:path-effect
       is_visible="true"
       id="path-effect846"
       effect="spiro" />
    <inkscape:path-effect
       is_visible="true"
       id="path-effect838"
       effect="spiro" />
    <inkscape:path-effect
       effect="spiro"
       id="path-effect4540"
       is_visible="true" />
    <inkscape:path-effect
       is_visible="true"
       id="path-effect4536"
       effect="spiro" />
    <inkscape:path-effect
       effect="spiro"
       id="path-effect4519"
       is_visible="true" />
    <inkscape:path-effect
       effect="spiro"
       id="path-effect4514"
       is_visible="true" />
    <inkscape:path-effect
       effect="spiro"
       id="path-effect4510"
       is_visible="true" />
    <inkscape:path-effect
       effect="spiro"
       id="path-effect4506"
       is_visible="true" />
  </defs>
  <sodipodi:namedview
     id="base"
     pagecolor="#000000"
     bordercolor="#666666"
     borderopacity="1.0"
     inkscape:pageopacity="1"
     inkscape:pageshadow="2"
     inkscape:zoom="0.93446882"
     inkscape:cx="478.18855"
     inkscape:cy="401.83256"
     inkscape:document-units="mm"
     inkscape:current-layer="svg8"
     showgrid="false"
     inkscape:window-width="1920"
     inkscape:window-height="1016"
     inkscape:window-x="0"
     inkscape:window-y="27"
     inkscape:window-maximized="1"
     fit-margin-top="0"
     fit-margin-left="0"
     fit-margin-right="0"
     fit-margin-bottom="0"
     showguides="true"
     inkscape:guide-bbox="true">
    <sodipodi:guide
       position="-48.154169,256.11668"
       orientation="1,0"
       id="guide866"
       inkscape:locked="false" />
  </sodipodi:namedview>
  <metadata
     id="metadata5">
    <rdf:RDF>
      <cc:Work
         rdf:about="">
        <dc:format>image/svg+xml</dc:format>
        <dc:type
           rdf:resource="http://purl.org/dc/dcmitype/StillImage" />
        <dc:title />
      </cc:Work>
    </rdf:RDF>
  </metadata>
  <g
     style="display:none"
     transform="translate(27.128281,-64.900518)"
     id="g1476"
     inkscape:groupmode="layer"
     inkscape:label="blockhead">
    <path
       inkscape:connector-curvature="0"
       id="path1474"
       d="m -16.646627,83.866736 18.1058599,7.711188 21.5361781,4.914465 4.424791,6.156991 8.163695,-1.05585 3.875904,5.93791 12.817117,2.97909 13.604571,8.03015 -3.525832,0.4685 -15.013087,-2.60785 6.137139,11.57714 19.453007,-1.94184 3.817129,14.40845 9.239853,37.50744 -2.801042,10.86102 16.203781,2.07798 16.203803,-2.07798 -2.80104,-10.86102 9.23984,-37.50744 3.81713,-14.40845 19.45301,1.94184 6.13714,-11.57714 -15.01308,2.60785 -3.52584,-0.4685 13.60457,-8.03015 12.81712,-2.97909 3.8759,-5.93791 8.16371,1.05585 4.42478,-6.156991 21.53617,-4.914465 18.10586,-7.711188 -25.11861,5.368701 -21.82315,3.570779 -0.7853,3.302388 -8.12178,-0.305993 -7.808,6.797509 -13.24497,-0.70058 -16.84388,4.92915 -16.9869,-2.10824 -5.306483,0.0718 -5.306468,-0.0718 -16.986913,2.10824 -16.843855,-4.92915 -13.244987,0.70058 -7.808,-6.797509 -8.121768,0.305993 L 30.29515,92.806216 8.4719945,89.235437 Z"
       style="fill:#00ff00;fill-rule:evenodd;stroke:#800080;stroke-width:0.94586724;stroke-linecap:butt;stroke-linejoin:miter;stroke-miterlimit:4;stroke-dasharray:none;stroke-opacity:1" />
  </g>
  <g
     style="display:none"
     transform="translate(27.128281,-64.900518)"
     id="g1550"
     inkscape:groupmode="layer"
     inkscape:label="blockhead skinny copy">
    <path
       sodipodi:nodetypes="ccccccccccccccccccccccccccccccccccccccccccccccccc"
       inkscape:connector-curvature="0"
       id="path1548"
       d="m -16.646627,83.866736 14.1260755,7.716122 16.8023875,4.917609 3.452194,6.160933 6.369263,-1.05653 13.607288,5.94171 24.922631,2.94676 10.614199,8.03528 -2.750831,0.4688 -11.713114,-2.60952 4.788156,11.58455 15.177111,-1.94308 2.9781,14.41767 7.208874,37.53143 -2.185355,10.86797 12.642086,2.07931 12.642102,-2.07931 -2.18535,-10.86797 7.20886,-37.53143 2.9781,-14.41767 15.17712,1.94308 4.78815,-11.58455 -11.71311,2.60952 -2.75083,-0.4688 10.61419,-8.03528 24.92264,-2.94676 13.60728,-5.94171 6.36928,1.05653 3.45218,-6.160933 16.80238,-4.917609 14.12608,-7.716122 -19.59738,5.372136 -15.96795,2.514731 -1.67102,4.362834 -6.33656,-0.306189 -16.67508,4.685182 -25.25644,0.32308 -13.14149,5.99063 -13.25307,-2.10959 -4.140082,0.0718 -4.140072,-0.0718 -13.253081,2.10959 L 68.857817,100.81851 43.601366,100.49543 26.926281,95.810248 20.58973,96.116437 18.918714,91.753603 2.9507605,89.238872 Z"
       style="fill:#00ff00;fill-rule:evenodd;stroke:#800080;stroke-width:0.83573818;stroke-linecap:butt;stroke-linejoin:miter;stroke-miterlimit:4;stroke-dasharray:none;stroke-opacity:1" />
  </g>
  <g
     inkscape:label="blockhead fat"
     inkscape:groupmode="layer"
     id="g1482"
     transform="translate(27.128281,-64.900518)"
     style="display:none">
    <path
       style="fill:#00ff00;fill-rule:evenodd;stroke:#800080;stroke-width:0.83573818;stroke-linecap:butt;stroke-linejoin:miter;stroke-miterlimit:4;stroke-dasharray:none;stroke-opacity:1"
       d="m -16.646627,83.866736 14.1260755,7.716122 16.8023875,4.917609 3.452194,6.160933 6.369263,-1.05653 13.607288,5.94171 24.922631,2.94676 10.614199,8.03528 -2.750831,0.4688 -11.713114,-2.60952 4.788156,11.58455 15.177111,-1.94308 2.9781,14.41767 7.208874,21.65643 -2.185355,10.86797 12.642086,2.07931 12.642102,-2.07931 -2.18535,-10.86797 7.20886,-21.65643 2.9781,-14.41767 15.17712,1.94308 4.78815,-11.58455 -11.71311,2.60952 -2.75083,-0.4688 10.61419,-8.03528 24.92264,-2.94676 13.60728,-5.94171 6.36928,1.05653 3.45218,-6.160933 16.80238,-4.917609 14.12608,-7.716122 -19.59738,5.372136 -15.96795,2.514731 -1.67102,4.362834 -6.33656,-0.306189 -16.67508,4.685182 -25.25644,0.32308 -13.14149,5.99063 -13.25307,-2.10959 -4.140082,0.0718 -4.140072,-0.0718 -13.253081,2.10959 L 68.857817,100.81851 43.601366,100.49543 26.926281,95.810248 20.58973,96.116437 18.918714,91.753603 2.9507605,89.238872 Z"
       id="path1480"
       inkscape:connector-curvature="0"
       sodipodi:nodetypes="ccccccccccccccccccccccccccccccccccccccccccccccccc" />
  </g>
  <g
     inkscape:groupmode="layer"
     id="layer4"
     inkscape:label="Stawkyard"
     style="display:none"
     transform="translate(2.1418726,2.3594484)">
    <g
       style="display:inline"
       transform="translate(3.5522457,3.0756696)"
       inkscape:label="BG"
       id="g899"
       inkscape:groupmode="layer">
      <rect
         y="0.51800698"
         x="0.25900668"
         height="200.73015"
         width="241.13519"
         id="rect897"
         style="opacity:1;fill:#2c002c;fill-opacity:1;stroke:#00ff00;stroke-width:11.90625;stroke-linecap:square;stroke-miterlimit:4;stroke-dasharray:none;stroke-dashoffset:660;stroke-opacity:1;paint-order:markers stroke fill" />
    </g>
    <g
       style="display:inline"
       inkscape:label="Bullheads"
       inkscape:groupmode="layer"
       id="g4560"
       transform="translate(24.986408,-67.259966)">
      <path
         sodipodi:nodetypes="ccsssssccssscccccsssssccscscccccccssccscccscsssccsssscc"
         inkscape:connector-curvature="0"
         id="path4558"
         d="m 83.321571,115.34338 c -1.309787,0.3171 -2.605265,0.67117 -3.883987,1.06153 -4.556145,1.39089 -8.877979,3.23565 -13.124063,5.16613 -4.324491,1.96615 -8.671775,4.05447 -13.523587,4.90596 -4.192597,0.73582 -8.574062,0.50929 -12.844892,-0.0157 -4.270842,-0.52499 -8.492794,-1.34406 -12.774517,-1.79246 -9.19511,-0.96293 -18.6035927,-0.1621 -27.29885334,2.27565 -2.43468156,0.68259 -4.81361456,1.49341 -7.11606746,2.42987 l 8.10220538,-1.33714 c 4.30436562,-0.36529 8.66125542,-0.37873 12.98677042,-0.0402 3.761486,0.29434 7.503178,0.8554 11.141306,1.73899 4.160339,1.01041 8.176212,2.43911 12.381722,3.30159 7.687762,1.57662 15.905512,1.17739 23.217539,-1.12811 -0.919005,0.34083 -1.824447,0.70536 -2.714897,1.09293 -4.497468,1.95762 -8.605151,4.5067 -12.123979,7.52442 0.62313,0.14206 1.253128,0.26263 1.88747,0.3612 7.525851,1.17264 15.609196,-0.9684 20.782859,-5.50478 -1.043766,2.1147 -1.156862,4.54635 -0.313895,6.75333 0.92375,2.41849 2.923142,4.48846 5.211997,6.19833 2.288856,1.70986 4.884658,3.10856 7.372126,4.61608 2.487496,1.50747 4.90753,3.1582 6.684046,5.23987 1.776491,2.08165 2.864015,4.65701 2.421808,7.14319 -0.224523,1.26222 -0.827016,2.44977 -1.185484,3.68852 -0.179186,0.61938 -0.297818,1.25585 -0.273583,1.89576 0.02423,0.6399 0.195589,1.28548 0.568331,1.85308 0.531559,0.80938 1.448469,1.41965 2.459583,1.80752 1.011137,0.38783 2.116715,0.56907 3.217948,0.67604 4.385132,0.42589 9.078343,-0.38844 12.887003,-2.1485 m 0,0 c 4.35544,-0.47129 9.34013,-2.30202 12.49019,-4.78736 0.79105,-0.62414 1.52914,-1.30923 2.03522,-2.1118 0.50615,-0.80252 0.76846,-1.73511 0.57414,-2.63668 -0.13628,-0.6322 -0.4913,-1.22759 -0.95874,-1.74639 -0.46734,-0.51877 -1.0452,-0.96491 -1.65813,-1.36778 -1.22584,-0.80575 -2.60607,-1.45139 -3.74364,-2.34134 -2.24066,-1.75293 -3.33727,-4.3258 -3.5127,-6.84506 -0.17541,-2.51926 0.48661,-5.01233 1.31097,-7.425 0.82431,-2.41266 1.81721,-4.7922 2.33038,-7.26787 0.51313,-2.47569 0.52317,-5.0949 -0.58391,-7.46327 -1.01024,-2.16127 -2.94869,-4.0322 -5.38342,-5.19618 7.54767,1.05947 15.57917,-1.20387 20.64948,-5.81921 0.42733,-0.38898 0.83469,-0.7931 1.22035,-1.21084 -5.08207,-0.667 -10.2743,-0.6743 -15.32555,-0.0221 -1.0001,0.12913 -1.99454,0.28387 -2.98174,0.46402 7.54548,-1.75527 14.35908,-5.46428 19.25049,-10.47898 2.6758,-2.74322 4.77087,-5.8421 7.29843,-8.680397 2.21027,-2.48204 4.74781,-4.759287 7.50382,-6.834967 3.16931,-2.386897 6.63101,-4.510407 10.31865,-6.329417 l 7.43521,-2.909417 c -11.59326,1.76433 -22.45436,6.388157 -30.84109,13.129731 -3.05098,2.45255 -5.77284,5.169437 -8.75699,7.677327 -2.98412,2.50789 -6.28287,4.8335 -10.16365,6.30424 -4.49104,1.702 -9.52272,2.17708 -14.44348,2.73779 -4.831566,0.55052 -9.65791,1.2061 -14.324781,2.33599 -1.309798,0.31712 -2.605621,0.67128 -3.884351,1.06166"
         style="fill:#00ff00;fill-rule:evenodd;stroke:#800080;stroke-width:1.32291663;stroke-linecap:butt;stroke-linejoin:miter;stroke-miterlimit:4;stroke-dasharray:none;stroke-opacity:1" />
      <use
         x="0"
         y="0"
         xlink:href="#path4558"
         id="use4564"
         transform="translate(15.32053,12.29689)"
         width="100%"
         height="100%"
         style="fill:#00ff00;stroke:#800080;stroke-width:1.32291663;stroke-miterlimit:4;stroke-dasharray:none" />
      <use
         x="0"
         y="0"
         xlink:href="#use4564"
         id="use4566"
         transform="translate(15.32053,12.29689)"
         width="100%"
         height="100%"
         style="fill:#00ff00;stroke:#800080;stroke-width:1.32291663;stroke-miterlimit:4;stroke-dasharray:none" />
    </g>
    <g
       transform="translate(24.986408,-67.259966)"
       id="g4532"
       inkscape:groupmode="layer"
       inkscape:label="Bullhead"
       style="display:none">
      <path
         style="fill:#00ff00;fill-rule:evenodd;stroke:#800080;stroke-width:1.05607569;stroke-linecap:butt;stroke-linejoin:miter;stroke-miterlimit:4;stroke-dasharray:none;stroke-opacity:1"
         d="m 99.925361,97.34667 c -1.758037,-0.06198 -3.517729,-0.06198 -5.275767,0 -6.26397,0.220849 -12.477104,1.227091 -18.642338,2.394767 -6.279058,1.189233 -12.648944,2.554283 -18.99428,1.834623 C 51.529793,100.95417 46.313649,98.794651 41.386311,96.228326 36.458968,93.662 31.742971,90.670003 26.762812,88.21533 16.067813,82.943867 4.202265,80.258736 -7.640424,80.351578 c -3.315953,0.02599 -6.630299,0.269591 -9.916431,0.735417 l 10.5524825,1.330427 c 5.4279137,1.230079 10.7380281,3.015564 15.82825,5.321705 4.4264705,2.005425 8.6911225,4.407121 12.6631685,7.254996 4.542179,3.256648 8.69254,7.087727 13.366096,10.138757 8.543365,5.57734 18.752166,8.37796 28.842885,7.91238 -1.294622,0.13596 -2.584958,0.31348 -3.868961,0.53217 -6.485183,1.10457 -12.801376,3.26769 -18.642812,6.38556 0.685165,0.47365 1.389695,0.91766 2.110685,1.33042 8.554905,4.8976 19.499556,5.00109 28.139479,0.26608 -2.362486,2.7743 -3.755826,6.415 -3.869433,10.11125 -0.124497,4.05049 1.240232,8.0183 3.143264,11.55998 1.903028,3.54166 4.340324,6.73868 6.589608,10.05577 2.249284,3.3171 4.342516,6.82344 5.429919,10.71656 1.087401,3.89312 1.081231,8.2494 -0.740877,11.83637 -0.925084,1.8211 -2.271666,3.37226 -3.347688,5.10225 -0.538012,0.86499 -1.011002,1.78105 -1.311948,2.7615 -0.300949,0.98045 -0.425757,2.03052 -0.265139,3.04574 0.22905,1.44775 1.029972,2.75325 2.060408,3.76054 1.030439,1.0073 2.282596,1.74032 3.567772,2.35894 5.117633,2.46338 11.250697,3.17367 16.795461,2.08316 m 0,0 c 5.544765,1.09051 12.557495,0.38022 17.675125,-2.08316 1.28517,-0.61862 2.53734,-1.35164 3.56777,-2.35894 1.03045,-1.00729 1.83136,-2.31279 2.06041,-3.76054 0.16061,-1.01522 0.0359,-2.06529 -0.26514,-3.04574 -0.30094,-0.98045 -0.77393,-1.89651 -1.31194,-2.7615 -1.07602,-1.72999 -2.42261,-3.28115 -3.34769,-5.10225 -1.82211,-3.58697 -1.82828,-7.94325 -0.74088,-11.83637 1.0874,-3.89312 3.18065,-7.39946 5.42993,-10.71656 2.24928,-3.31709 4.68657,-6.51411 6.5896,-10.05577 1.90302,-3.54168 3.26777,-7.50949 3.14326,-11.55998 -0.11359,-3.69625 -1.50694,-7.33695 -3.86943,-10.11125 8.63991,4.73501 19.58458,4.63152 28.13948,-0.26608 0.72099,-0.41276 1.42552,-0.85677 2.11068,-1.33042 -5.84144,-3.11787 -12.15762,-5.28099 -18.64281,-6.38556 -1.284,-0.21869 -2.57434,-0.39621 -3.86896,-0.53217 10.09072,0.46558 20.29952,-2.33504 28.84288,-7.91238 4.67356,-3.05103 8.82392,-6.882109 13.36611,-10.138757 3.97204,-2.847875 8.23669,-5.249571 12.66316,-7.254996 5.09022,-2.306141 10.40035,-4.091626 15.82825,-5.321705 l 10.55248,-1.330427 c -15.02232,-2.12949 -30.63007,0.380861 -44.31967,7.128335 -4.98015,2.454673 -9.69615,5.44667 -14.6235,8.012996 -4.92734,2.566325 -10.14348,4.725844 -15.62666,5.347734 -6.34534,0.71966 -12.71522,-0.64539 -18.99428,-1.834623 -6.16523,-1.167676 -12.37837,-2.173918 -18.64234,-2.394767 -1.75803,-0.06198 -3.5182,-0.06198 -5.276239,0"
         id="path4534"
         inkscape:connector-curvature="0"
         sodipodi:nodetypes="ccsssssccssscccccsssssccscscccccccssccscccscsssccsssscc" />
    </g>
    <text
       xml:space="preserve"
       style="font-style:normal;font-variant:normal;font-weight:bold;font-stretch:normal;font-size:59.04046249px;line-height:7.68756008px;font-family:'DejaVu Sans';-inkscape-font-specification:'DejaVu Sans Bold';letter-spacing:0px;word-spacing:0px;fill:#00ff00;fill-opacity:1;stroke:#800080;stroke-width:1.32291663;stroke-linecap:butt;stroke-linejoin:miter;stroke-miterlimit:4;stroke-dasharray:none;stroke-opacity:1"
       x="11.649609"
       y="149.31744"
       id="text4546"
       transform="scale(0.79361621,1.2600549)"><tspan
         sodipodi:role="line"
         id="tspan4544"
         x="11.649609"
         y="149.31744"
         style="font-style:normal;font-variant:normal;font-weight:bold;font-stretch:normal;font-family:'DejaVu Sans';-inkscape-font-specification:'DejaVu Sans Bold';fill:#00ff00;stroke:#800080;stroke-width:1.32291663;stroke-miterlimit:4;stroke-dasharray:none">$<tspan
   style="font-size:46.85546875px;fill:#00ff00;stroke:#800080;stroke-width:1.32291663;stroke-miterlimit:4;stroke-dasharray:none"
   id="tspan4548">tawkyard</tspan></tspan></text>
  </g>
  <g
     transform="translate(2.1418726,2.3594484)"
     style="display:none"
     inkscape:label="Stawkyard BlockHead-BluRed"
     id="g893"
     inkscape:groupmode="layer">
    <g
       inkscape:groupmode="layer"
       id="layer5"
       inkscape:label="BG"
       transform="translate(3.5522457,3.0756696)"
       style="display:inline">
      <rect
         style="opacity:1;fill:#000000;fill-opacity:1;stroke:#ff0000;stroke-width:11.90625;stroke-linecap:square;stroke-miterlimit:4;stroke-dasharray:none;stroke-dashoffset:660;stroke-opacity:1;paint-order:markers stroke fill"
         id="rect4571"
         width="241.13519"
         height="200.73015"
         x="0.25900668"
         y="0.51800698" />
    </g>
    <g
       style="display:inline"
       transform="translate(24.986408,-67.259966)"
       id="g907"
       inkscape:groupmode="layer"
       inkscape:label="blockheads">
      <path
         style="fill:#0000ff;fill-rule:evenodd;stroke:#ff0000;stroke-width:0.70900774;stroke-linecap:butt;stroke-linejoin:miter;stroke-miterlimit:4;stroke-dasharray:none;stroke-opacity:1"
         d="m -23.060474,99.617031 13.5919892,5.732739 16.1559644,3.62739 3.3328594,4.60357 6.11658,-0.81282 2.920852,4.44078 9.61526,2.19951 10.218747,5.98361 -2.641668,0.36042 -11.260343,-1.91548 4.630596,8.66192 14.576506,-1.50651 2.898976,10.7903 7.024236,28.09064 -2.071163,8.14854 12.151476,1.51518 12.14061,-1.60004 -2.128049,-8.13388 6.827781,-28.13903 2.823514,-10.81029 14.586674,1.40463 4.569966,-8.69408 -11.246683,1.99411 -2.644123,-0.34194 10.176686,-6.05487 9.59966,-2.26663 2.88974,-4.4611 6.12213,0.77007 3.3006,-4.62674 16.13022,-3.74019 13.5516,-5.827569 -18.81436,4.090049 -16.34885,2.73374 -0.58,2.47746 -6.08872,-0.2081 -5.83492,5.11573 -9.930008,-0.49045 -12.612927,3.7389 -12.738565,-1.53581 -3.977451,0.0677 -3.977811,-0.04 -12.727534,1.62478 -12.63873,-3.65068 -9.926347,0.55983 -5.870524,-5.07484 -6.087116,0.25064 -0.59729,-2.47335 -16.3675585,-2.61944 z"
         id="use909"
         inkscape:connector-curvature="0" />
      <use
         x="0"
         y="0"
         xlink:href="#use909"
         id="use911"
         transform="translate(70.677755,-0.24698689)"
         width="100%"
         height="100%" />
    </g>
    <g
       inkscape:label="blockhead"
       inkscape:groupmode="layer"
       id="layer1"
       transform="translate(24.986408,-67.259966)"
       style="display:inline">
      <path
         style="fill:#0000ff;fill-rule:evenodd;stroke:#ff0000;stroke-width:0.94586724;stroke-linecap:butt;stroke-linejoin:miter;stroke-miterlimit:4;stroke-dasharray:none;stroke-opacity:1"
         d="m -16.646627,83.866736 18.1058599,7.711188 21.5361781,4.914465 4.424791,6.156991 8.163695,-1.05585 3.875904,5.93791 12.817117,2.97909 13.604571,8.03015 -3.525832,0.4685 -15.013087,-2.60785 6.137139,11.57714 19.453007,-1.94184 3.817129,14.40845 9.239853,37.50744 -2.801042,10.86102 16.203781,2.07798 16.203803,-2.07798 -2.80104,-10.86102 9.23984,-37.50744 3.81713,-14.40845 19.45301,1.94184 6.13714,-11.57714 -15.01308,2.60785 -3.52584,-0.4685 13.60457,-8.03015 12.81712,-2.97909 3.8759,-5.93791 8.16371,1.05585 4.42478,-6.156991 21.53617,-4.914465 18.10586,-7.711188 -25.11861,5.368701 -21.82315,3.570779 -0.7853,3.302388 -8.12178,-0.305993 -7.808,6.797509 -13.24497,-0.70058 -16.84388,4.92915 -16.9869,-2.10824 -5.306483,0.0718 -5.306468,-0.0718 -16.986913,2.10824 -16.843855,-4.92915 -13.244987,0.70058 -7.808,-6.797509 -8.121768,0.305993 L 30.29515,92.806216 8.4719945,89.235437 Z"
         id="path4517"
         inkscape:connector-curvature="0" />
    </g>
    <text
       transform="scale(0.79361621,1.2600549)"
       id="text891"
       y="149.31744"
       x="12.109086"
       style="font-style:normal;font-variant:normal;font-weight:bold;font-stretch:normal;font-size:59.04046249px;line-height:7.68756008px;font-family:'DejaVu Sans';-inkscape-font-specification:'DejaVu Sans Bold';letter-spacing:0px;word-spacing:0px;fill:#0000ff;fill-opacity:1;stroke:#ff0000;stroke-width:1.32291663;stroke-linecap:butt;stroke-linejoin:miter;stroke-miterlimit:4;stroke-dasharray:none;stroke-opacity:1"
       xml:space="preserve"><tspan
         style="font-style:normal;font-variant:normal;font-weight:bold;font-stretch:normal;font-family:'DejaVu Sans';-inkscape-font-specification:'DejaVu Sans Bold';fill:#0000ff;stroke:#ff0000;stroke-width:1.32291663;stroke-miterlimit:4;stroke-dasharray:none"
         y="149.31744"
         x="12.109086"
         id="tspan889"
         sodipodi:role="line">$<tspan
   id="tspan887"
   style="font-size:46.85546875px;fill:#0000ff;stroke:#ff0000;stroke-width:1.32291663;stroke-miterlimit:4;stroke-dasharray:none">tawkyard</tspan></tspan></text>
  </g>
  <g
     inkscape:groupmode="layer"
     id="g937"
     inkscape:label="Stawkyard Blockhead-GreenPurp"
     style="display:none"
     transform="translate(2.1418726,2.3594484)">
    <g
       style="display:inline"
       transform="translate(3.5522457,3.0756696)"
       inkscape:label="BG"
       id="g919"
       inkscape:groupmode="layer">
      <rect
         y="0.51800698"
         x="0.25900668"
         height="200.73015"
         width="241.13519"
         id="rect917"
         style="opacity:1;fill:#2c002c;fill-opacity:1;stroke:#00ff00;stroke-width:11.90625;stroke-linecap:square;stroke-miterlimit:4;stroke-dasharray:none;stroke-dashoffset:660;stroke-opacity:1;paint-order:markers stroke fill" />
    </g>
    <g
       inkscape:label="blockheads"
       inkscape:groupmode="layer"
       id="g925"
       transform="translate(24.986408,-67.259966)"
       style="display:inline">
      <path
         inkscape:connector-curvature="0"
         id="path921"
         d="m -23.060474,99.617031 13.5919892,5.732739 16.1559644,3.62739 3.3328594,4.60357 6.11658,-0.81282 2.920852,4.44078 9.61526,2.19951 10.218747,5.98361 -2.641668,0.36042 -11.260343,-1.91548 4.630596,8.66192 14.576506,-1.50651 2.898976,10.7903 7.024236,28.09064 -2.071163,8.14854 12.151476,1.51518 12.14061,-1.60004 -2.128049,-8.13388 6.827781,-28.13903 2.823514,-10.81029 14.586674,1.40463 4.569966,-8.69408 -11.246683,1.99411 -2.644123,-0.34194 10.176686,-6.05487 9.59966,-2.26663 2.88974,-4.4611 6.12213,0.77007 3.3006,-4.62674 16.13022,-3.74019 13.5516,-5.827569 -18.81436,4.090049 -16.34885,2.73374 -0.58,2.47746 -6.08872,-0.2081 -5.83492,5.11573 -9.930008,-0.49045 -12.612927,3.7389 -12.738565,-1.53581 -3.977451,0.0677 -3.977811,-0.04 -12.727534,1.62478 -12.63873,-3.65068 -9.926347,0.55983 -5.870524,-5.07484 -6.087116,0.25064 -0.59729,-2.47335 -16.3675585,-2.61944 z"
         style="fill:#00ff00;fill-rule:evenodd;stroke:#800080;stroke-width:0.70900774;stroke-linecap:butt;stroke-linejoin:miter;stroke-miterlimit:4;stroke-dasharray:none;stroke-opacity:1" />
      <use
         x="0"
         y="0"
         xlink:href="#path921"
         id="use939"
         transform="translate(70.751385,-0.06527)"
         width="100%"
         height="100%" />
    </g>
    <g
       inkscape:label="blockhead copy 1"
       inkscape:groupmode="layer"
       id="g1470"
       transform="translate(24.986408,-67.259966)"
       style="display:inline">
      <path
         style="fill:#00ff00;fill-rule:evenodd;stroke:#800080;stroke-width:0.94586724;stroke-linecap:butt;stroke-linejoin:miter;stroke-miterlimit:4;stroke-dasharray:none;stroke-opacity:1"
         d="m -16.646627,83.866736 18.1058599,7.711188 21.5361781,4.914465 4.424791,6.156991 8.163695,-1.05585 3.875904,5.93791 12.817117,2.97909 13.604571,8.03015 -3.525832,0.4685 -15.013087,-2.60785 6.137139,11.57714 19.453007,-1.94184 3.817129,14.40845 9.239853,37.50744 -2.801042,10.86102 16.203781,2.07798 16.203803,-2.07798 -2.80104,-10.86102 9.23984,-37.50744 3.81713,-14.40845 19.45301,1.94184 6.13714,-11.57714 -15.01308,2.60785 -3.52584,-0.4685 13.60457,-8.03015 12.81712,-2.97909 3.8759,-5.93791 8.16371,1.05585 4.42478,-6.156991 21.53617,-4.914465 18.10586,-7.711188 -25.11861,5.368701 -21.82315,3.570779 -0.7853,3.302388 -8.12178,-0.305993 -7.808,6.797509 -13.24497,-0.70058 -16.84388,4.92915 -16.9869,-2.10824 -5.306483,0.0718 -5.306468,-0.0718 -16.986913,2.10824 -16.843855,-4.92915 -13.244987,0.70058 -7.808,-6.797509 -8.121768,0.305993 L 30.29515,92.806216 8.4719945,89.235437 Z"
         id="path1468"
         inkscape:connector-curvature="0" />
    </g>
    <g
       inkscape:label="blockheads angle"
       inkscape:groupmode="layer"
       id="g943"
       transform="translate(24.986408,-67.259966)"
       style="display:none">
      <g
         id="g954"
         transform="translate(0.86495973,2.0327187)">
        <path
           inkscape:connector-curvature="0"
           id="path941"
           d="m -2.5722645,125.38795 14.9047275,1.85084 16.833448,-0.92217 4.540726,3.58687 5.767397,-2.49095 4.09197,3.54154 10.029725,-0.50901 11.669372,3.0312 -2.488265,1.08499 -11.56277,1.24305 6.936529,7.20342 13.863644,-5.51441 5.82968,9.76839 14.664404,25.57515 0.228387,8.55717 12.32497,-1.88211 11.45126,-4.93119 -4.33843,-7.37941 -1.1066,-29.46028 -0.22873,-11.37341 14.68017,-2.66511 2.06862,-9.78395 -10.46623,5.0696 -2.68526,0.39755 8.29288,-8.7516 8.77709,-4.88029 1.59522,-5.17127 6.21136,-0.941685 1.95186,-5.447395 14.76701,-8.13327 11.66237,-9.463932 -17.29982,9.21969 -15.26006,7.207795 0.11814,2.58793 -6.02295,1.483013 -4.29932,6.628594 -9.86459,2.27061 -11.32145,7.15755 -12.90586,2.02456 -3.87806,1.16831 -3.908238,1.06294 -12.019387,5.11802 -13.393958,-0.0751 -9.570028,3.29858 -7.157513,-3.34552 -5.894285,1.932 -1.270428,-2.25773 -16.761494,1.96833 z"
           style="fill:#00ff00;fill-rule:evenodd;stroke:#800080;stroke-width:0.72187525;stroke-linecap:butt;stroke-linejoin:miter;stroke-miterlimit:4;stroke-dasharray:none;stroke-opacity:1" />
        <use
           height="100%"
           width="100%"
           transform="translate(15.875,15.875)"
           id="use945"
           xlink:href="#path941"
           y="0"
           x="0" />
        <use
           height="100%"
           width="100%"
           transform="translate(31.750001,31.750001)"
           id="use949"
           xlink:href="#path941"
           y="0"
           x="0" />
      </g>
    </g>
    <text
       xml:space="preserve"
       style="font-style:normal;font-variant:normal;font-weight:bold;font-stretch:normal;font-size:59.04046249px;line-height:7.68756008px;font-family:'DejaVu Sans';-inkscape-font-specification:'DejaVu Sans Bold';letter-spacing:0px;word-spacing:0px;fill:#00ff00;fill-opacity:1;stroke:#800080;stroke-width:1.32291663;stroke-linecap:butt;stroke-linejoin:miter;stroke-miterlimit:4;stroke-dasharray:none;stroke-opacity:1"
       x="12.109086"
       y="149.31744"
       id="text935"
       transform="scale(0.79361621,1.2600549)"><tspan
         sodipodi:role="line"
         id="tspan933"
         x="12.109086"
         y="149.31744"
         style="font-style:normal;font-variant:normal;font-weight:bold;font-stretch:normal;font-family:'DejaVu Sans';-inkscape-font-specification:'DejaVu Sans Bold';fill:#00ff00;stroke:#800080;stroke-width:1.32291663;stroke-miterlimit:4;stroke-dasharray:none">$<tspan
   style="font-size:46.85546875px;fill:#00ff00;stroke:#800080;stroke-width:1.32291663;stroke-miterlimit:4;stroke-dasharray:none"
   id="tspan931">tawkyard</tspan></tspan></text>
  </g>
  <g
     transform="translate(2.1418726,2.3594484)"
     style="display:none"
     inkscape:label="Stawkyard Blockhead-GreenPurp smaller"
     id="g1514"
     inkscape:groupmode="layer">
    <g
       inkscape:groupmode="layer"
       id="g1486"
       inkscape:label="BG"
       transform="translate(3.5522457,3.0756696)"
       style="display:inline">
      <rect
         style="opacity:1;fill:#2c002c;fill-opacity:1;stroke:#00ff00;stroke-width:11.90625;stroke-linecap:square;stroke-miterlimit:4;stroke-dasharray:none;stroke-dashoffset:660;stroke-opacity:1;paint-order:markers stroke fill"
         id="rect1484"
         width="241.13519"
         height="200.73015"
         x="0.25900668"
         y="0.51800698" />
    </g>
    <g
       style="display:inline"
       transform="translate(24.986408,-67.259966)"
       id="g1492"
       inkscape:groupmode="layer"
       inkscape:label="blockheads">
      <path
         style="fill:#00ff00;fill-rule:evenodd;stroke:#800080;stroke-width:0.51758027;stroke-linecap:butt;stroke-linejoin:miter;stroke-miterlimit:4;stroke-dasharray:none;stroke-opacity:1"
         d="m -5.8997632,110.31657 9.9222398,4.18494 11.7939584,2.64801 2.433009,3.36064 4.465143,-0.59336 2.132241,3.2418 7.019203,1.60565 7.459751,4.36808 -1.928434,0.2631 -8.220124,-1.39831 3.380365,6.32326 10.640944,-1.09976 2.116272,7.87699 5.127737,20.50635 -1.511962,5.94848 8.870656,1.1061 8.862725,-1.16804 -1.55349,-5.93779 4.984325,-20.54167 2.061183,-7.89159 10.648367,1.02539 3.336103,-6.34673 -8.21015,1.45571 -1.930227,-0.24962 7.429047,-4.42009 7.007807,-1.65466 2.10953,-3.25663 4.469197,0.56216 2.40946,-3.37755 11.775157,-2.73037 9.89276,-4.25416 -13.73461,2.98576 -11.934757,1.99565 -0.42341,1.80856 -4.444797,-0.15191 -4.259527,3.73452 -7.248972,-0.35804 -9.207518,2.72942 -9.299236,-1.12115 -2.903565,0.0494 -2.903828,-0.0292 -9.291182,1.1861 -9.226355,-2.66502 -7.246298,0.40868 -4.285521,-3.70466 -4.443634,0.18297 -0.436025,-1.80556 -11.9484247,-1.91221 z"
         id="path1488"
         inkscape:connector-curvature="0" />
      <use
         height="100%"
         width="100%"
         transform="matrix(0.7300065,0,0,0.7300065,94.333504,37.547842)"
         id="use1490"
         xlink:href="#path921"
         y="0"
         x="0" />
    </g>
    <g
       style="display:inline"
       transform="translate(24.986408,-67.259966)"
       id="g1496"
       inkscape:groupmode="layer"
       inkscape:label="blockhead copy 1">
      <path
         inkscape:connector-curvature="0"
         id="path1494"
         d="m -16.646627,83.866736 18.1058599,7.711188 21.5361781,4.914465 4.424791,6.156991 8.163695,-1.05585 3.875904,5.93791 12.817117,2.97909 13.604571,8.03015 -3.525832,0.4685 -15.013087,-2.60785 6.137139,11.57714 19.453007,-1.94184 3.817129,14.40845 9.239853,37.50744 -2.801042,10.86102 16.203781,2.07798 16.203803,-2.07798 -2.80104,-10.86102 9.23984,-37.50744 3.81713,-14.40845 19.45301,1.94184 6.13714,-11.57714 -15.01308,2.60785 -3.52584,-0.4685 13.60457,-8.03015 12.81712,-2.97909 3.8759,-5.93791 8.16371,1.05585 4.42478,-6.156991 21.53617,-4.914465 18.10586,-7.711188 -25.11861,5.368701 -21.82315,3.570779 -0.7853,3.302388 -8.12178,-0.305993 -7.808,6.797509 -13.24497,-0.70058 -16.84388,4.92915 -16.9869,-2.10824 -5.306483,0.0718 -5.306468,-0.0718 -16.986913,2.10824 -16.843855,-4.92915 -13.244987,0.70058 -7.808,-6.797509 -8.121768,0.305993 L 30.29515,92.806216 8.4719945,89.235437 Z"
         style="fill:#00ff00;fill-rule:evenodd;stroke:#800080;stroke-width:0.94586724;stroke-linecap:butt;stroke-linejoin:miter;stroke-miterlimit:4;stroke-dasharray:none;stroke-opacity:1" />
    </g>
    <g
       style="display:none"
       transform="translate(24.986408,-67.259966)"
       id="g1506"
       inkscape:groupmode="layer"
       inkscape:label="blockheads angle">
      <g
         transform="translate(0.86495973,2.0327187)"
         id="g1504">
        <path
           style="fill:#00ff00;fill-rule:evenodd;stroke:#800080;stroke-width:0.72187525;stroke-linecap:butt;stroke-linejoin:miter;stroke-miterlimit:4;stroke-dasharray:none;stroke-opacity:1"
           d="m -2.5722645,125.38795 14.9047275,1.85084 16.833448,-0.92217 4.540726,3.58687 5.767397,-2.49095 4.09197,3.54154 10.029725,-0.50901 11.669372,3.0312 -2.488265,1.08499 -11.56277,1.24305 6.936529,7.20342 13.863644,-5.51441 5.82968,9.76839 14.664404,25.57515 0.228387,8.55717 12.32497,-1.88211 11.45126,-4.93119 -4.33843,-7.37941 -1.1066,-29.46028 -0.22873,-11.37341 14.68017,-2.66511 2.06862,-9.78395 -10.46623,5.0696 -2.68526,0.39755 8.29288,-8.7516 8.77709,-4.88029 1.59522,-5.17127 6.21136,-0.941685 1.95186,-5.447395 14.76701,-8.13327 11.66237,-9.463932 -17.29982,9.21969 -15.26006,7.207795 0.11814,2.58793 -6.02295,1.483013 -4.29932,6.628594 -9.86459,2.27061 -11.32145,7.15755 -12.90586,2.02456 -3.87806,1.16831 -3.908238,1.06294 -12.019387,5.11802 -13.393958,-0.0751 -9.570028,3.29858 -7.157513,-3.34552 -5.894285,1.932 -1.270428,-2.25773 -16.761494,1.96833 z"
           id="path1498"
           inkscape:connector-curvature="0" />
        <use
           x="0"
           y="0"
           xlink:href="#path941"
           id="use1500"
           transform="translate(15.875,15.875)"
           width="100%"
           height="100%" />
        <use
           x="0"
           y="0"
           xlink:href="#path941"
           id="use1502"
           transform="translate(31.750001,31.750001)"
           width="100%"
           height="100%" />
      </g>
    </g>
    <text
       transform="scale(0.79361621,1.2600549)"
       id="text1512"
       y="149.31744"
       x="12.109086"
       style="font-style:normal;font-variant:normal;font-weight:bold;font-stretch:normal;font-size:59.04046249px;line-height:7.68756008px;font-family:'DejaVu Sans';-inkscape-font-specification:'DejaVu Sans Bold';letter-spacing:0px;word-spacing:0px;fill:#00ff00;fill-opacity:1;stroke:#800080;stroke-width:1.32291663;stroke-linecap:butt;stroke-linejoin:miter;stroke-miterlimit:4;stroke-dasharray:none;stroke-opacity:1"
       xml:space="preserve"><tspan
         style="font-style:normal;font-variant:normal;font-weight:bold;font-stretch:normal;font-family:'DejaVu Sans';-inkscape-font-specification:'DejaVu Sans Bold';fill:#00ff00;stroke:#800080;stroke-width:1.32291663;stroke-miterlimit:4;stroke-dasharray:none"
         y="149.31744"
         x="12.109086"
         id="tspan1510"
         sodipodi:role="line">$<tspan
   id="tspan1508"
   style="font-size:46.85546875px;fill:#00ff00;stroke:#800080;stroke-width:1.32291663;stroke-miterlimit:4;stroke-dasharray:none">tawkyard</tspan></tspan></text>
  </g>
  <g
     inkscape:groupmode="layer"
     id="g1546"
     inkscape:label="Stawkyard Blockhead-GreenPurp skinny"
     style="display:none"
     transform="translate(2.1418726,2.3594484)">
    <g
       style="display:inline"
       transform="translate(3.5522457,3.0756696)"
       inkscape:label="BG"
       id="g1518"
       inkscape:groupmode="layer">
      <rect
         y="0.51800698"
         x="0.25900668"
         height="200.73015"
         width="241.13519"
         id="rect1516"
         style="opacity:1;fill:#2c002c;fill-opacity:1;stroke:#00ff00;stroke-width:11.90625;stroke-linecap:square;stroke-miterlimit:4;stroke-dasharray:none;stroke-dashoffset:660;stroke-opacity:1;paint-order:markers stroke fill" />
    </g>
    <g
       inkscape:label="blockheads"
       inkscape:groupmode="layer"
       id="g1524"
       transform="translate(24.986408,-67.259966)"
       style="display:none">
      <path
         inkscape:connector-curvature="0"
         id="path1520"
         d="m -5.8997632,110.31657 9.9222398,4.18494 11.7939584,2.64801 2.433009,3.36064 4.465143,-0.59336 2.132241,3.2418 7.019203,1.60565 7.459751,4.36808 -1.928434,0.2631 -8.220124,-1.39831 3.380365,6.32326 10.640944,-1.09976 2.116272,7.87699 5.127737,20.50635 -1.511962,5.94848 8.870656,1.1061 8.862725,-1.16804 -1.55349,-5.93779 4.984325,-20.54167 2.061183,-7.89159 10.648367,1.02539 3.336103,-6.34673 -8.21015,1.45571 -1.930227,-0.24962 7.429047,-4.42009 7.007807,-1.65466 2.10953,-3.25663 4.469197,0.56216 2.40946,-3.37755 11.775157,-2.73037 9.89276,-4.25416 -13.73461,2.98576 -11.934757,1.99565 -0.42341,1.80856 -4.444797,-0.15191 -4.259527,3.73452 -7.248972,-0.35804 -9.207518,2.72942 -9.299236,-1.12115 -2.903565,0.0494 -2.903828,-0.0292 -9.291182,1.1861 -9.226355,-2.66502 -7.246298,0.40868 -4.285521,-3.70466 -4.443634,0.18297 -0.436025,-1.80556 -11.9484247,-1.91221 z"
         style="fill:#00ff00;fill-rule:evenodd;stroke:#800080;stroke-width:0.51758027;stroke-linecap:butt;stroke-linejoin:miter;stroke-miterlimit:4;stroke-dasharray:none;stroke-opacity:1" />
      <use
         x="0"
         y="0"
         xlink:href="#path921"
         id="use1522"
         transform="matrix(0.7300065,0,0,0.7300065,94.333504,37.547842)"
         width="100%"
         height="100%" />
    </g>
    <g
       inkscape:label="blockhead copy 1"
       inkscape:groupmode="layer"
       id="g1528"
       transform="translate(24.986408,-67.259966)"
       style="display:none">
      <path
         style="fill:#00ff00;fill-rule:evenodd;stroke:#800080;stroke-width:0.94586724;stroke-linecap:butt;stroke-linejoin:miter;stroke-miterlimit:4;stroke-dasharray:none;stroke-opacity:1"
         d="m -16.646627,83.866736 18.1058599,7.711188 21.5361781,4.914465 4.424791,6.156991 8.163695,-1.05585 3.875904,5.93791 12.817117,2.97909 13.604571,8.03015 -3.525832,0.4685 -15.013087,-2.60785 6.137139,11.57714 19.453007,-1.94184 3.817129,14.40845 9.239853,37.50744 -2.801042,10.86102 16.203781,2.07798 16.203803,-2.07798 -2.80104,-10.86102 9.23984,-37.50744 3.81713,-14.40845 19.45301,1.94184 6.13714,-11.57714 -15.01308,2.60785 -3.52584,-0.4685 13.60457,-8.03015 12.81712,-2.97909 3.8759,-5.93791 8.16371,1.05585 4.42478,-6.156991 21.53617,-4.914465 18.10586,-7.711188 -25.11861,5.368701 -21.82315,3.570779 -0.7853,3.302388 -8.12178,-0.305993 -7.808,6.797509 -13.24497,-0.70058 -16.84388,4.92915 -16.9869,-2.10824 -5.306483,0.0718 -5.306468,-0.0718 -16.986913,2.10824 -16.843855,-4.92915 -13.244987,0.70058 -7.808,-6.797509 -8.121768,0.305993 L 30.29515,92.806216 8.4719945,89.235437 Z"
         id="path1526"
         inkscape:connector-curvature="0" />
    </g>
    <g
       style="display:inline"
       transform="translate(24.986408,-67.259966)"
       id="g1562"
       inkscape:groupmode="layer"
       inkscape:label="blockheads skinny">
      <path
         sodipodi:nodetypes="ccccccccccccccccccccccccccccccccccccccccccccccccc"
         inkscape:connector-curvature="0"
         id="path1560"
         d="m -6.5498785,110.29546 7.8242562,4.27386 9.3066333,2.72381 1.912126,3.41246 3.527856,-0.58521 7.536906,3.29105 13.804333,1.63217 5.879073,4.45065 -1.523651,0.25966 -6.487747,-1.44538 2.6521,6.41654 8.406411,-1.07625 1.649532,7.98577 3.992905,20.78818 -1.210441,6.01964 7.002294,1.15169 7.002301,-1.15169 -1.210437,-6.01964 3.992897,-20.78818 1.649533,-7.98577 8.406416,1.07625 2.652096,-6.41654 -6.487745,1.44538 -1.52365,-0.25966 5.879068,-4.45065 13.804336,-1.63217 7.536902,-3.29105 3.527865,0.58521 1.91212,-3.41246 9.30663,-2.72381 7.82426,-4.27386 -10.85474,2.97556 -8.84446,1.39287 -0.92555,2.41653 -3.509744,-0.16959 -9.236119,2.59505 -13.989223,0.17896 -7.278908,3.31813 -7.340709,-1.16847 -2.293139,0.0398 -2.293134,-0.0398 -7.340716,1.16847 -7.278895,-3.31813 -13.989232,-0.17896 -9.236121,-2.59505 -3.509735,0.16959 -0.925555,-2.41653 -8.8444506,-1.39287 z"
         style="fill:#00ff00;fill-rule:evenodd;stroke:#800080;stroke-width:0.4629049;stroke-linecap:butt;stroke-linejoin:miter;stroke-miterlimit:4;stroke-dasharray:none;stroke-opacity:1" />
      <use
         x="0"
         y="0"
         xlink:href="#path1560"
         id="use1564"
         transform="translate(83.608337)"
         width="100%"
         height="100%" />
    </g>
    <g
       inkscape:label="blockhead skinny"
       inkscape:groupmode="layer"
       id="g1556"
       transform="translate(24.986408,-67.259966)"
       style="display:inline">
      <path
         style="fill:#00ff00;fill-rule:evenodd;stroke:#800080;stroke-width:0.83573818;stroke-linecap:butt;stroke-linejoin:miter;stroke-miterlimit:4;stroke-dasharray:none;stroke-opacity:1"
         d="m -16.646627,83.866736 14.1260755,7.716122 16.8023875,4.917609 3.452194,6.160933 6.369263,-1.05653 13.607288,5.94171 24.922631,2.94676 10.614199,8.03528 -2.750831,0.4688 -11.713114,-2.60952 4.788156,11.58455 15.177111,-1.94308 2.9781,14.41767 7.208874,37.53143 -2.185355,10.86797 12.642086,2.07931 12.642102,-2.07931 -2.18535,-10.86797 7.20886,-37.53143 2.9781,-14.41767 15.17712,1.94308 4.78815,-11.58455 -11.71311,2.60952 -2.75083,-0.4688 10.61419,-8.03528 24.92264,-2.94676 13.60728,-5.94171 6.36928,1.05653 3.45218,-6.160933 16.80238,-4.917609 14.12608,-7.716122 -19.59738,5.372136 -15.96795,2.514731 -1.67102,4.362834 -6.33656,-0.306189 -16.67508,4.685182 -25.25644,0.32308 -13.14149,5.99063 -13.25307,-2.10959 -4.140082,0.0718 -4.140072,-0.0718 -13.253081,2.10959 L 68.857817,100.81851 43.601366,100.49543 26.926281,95.810248 20.58973,96.116437 18.918714,91.753603 2.9507605,89.238872 Z"
         id="path1554"
         inkscape:connector-curvature="0"
         sodipodi:nodetypes="ccccccccccccccccccccccccccccccccccccccccccccccccc" />
    </g>
    <g
       inkscape:label="blockheads angle"
       inkscape:groupmode="layer"
       id="g1538"
       transform="translate(24.986408,-67.259966)"
       style="display:none">
      <g
         id="g1536"
         transform="translate(0.86495973,2.0327187)">
        <path
           inkscape:connector-curvature="0"
           id="path1530"
           d="m -2.5722645,125.38795 14.9047275,1.85084 16.833448,-0.92217 4.540726,3.58687 5.767397,-2.49095 4.09197,3.54154 10.029725,-0.50901 11.669372,3.0312 -2.488265,1.08499 -11.56277,1.24305 6.936529,7.20342 13.863644,-5.51441 5.82968,9.76839 14.664404,25.57515 0.228387,8.55717 12.32497,-1.88211 11.45126,-4.93119 -4.33843,-7.37941 -1.1066,-29.46028 -0.22873,-11.37341 14.68017,-2.66511 2.06862,-9.78395 -10.46623,5.0696 -2.68526,0.39755 8.29288,-8.7516 8.77709,-4.88029 1.59522,-5.17127 6.21136,-0.941685 1.95186,-5.447395 14.76701,-8.13327 11.66237,-9.463932 -17.29982,9.21969 -15.26006,7.207795 0.11814,2.58793 -6.02295,1.483013 -4.29932,6.628594 -9.86459,2.27061 -11.32145,7.15755 -12.90586,2.02456 -3.87806,1.16831 -3.908238,1.06294 -12.019387,5.11802 -13.393958,-0.0751 -9.570028,3.29858 -7.157513,-3.34552 -5.894285,1.932 -1.270428,-2.25773 -16.761494,1.96833 z"
           style="fill:#00ff00;fill-rule:evenodd;stroke:#800080;stroke-width:0.72187525;stroke-linecap:butt;stroke-linejoin:miter;stroke-miterlimit:4;stroke-dasharray:none;stroke-opacity:1" />
        <use
           height="100%"
           width="100%"
           transform="translate(15.875,15.875)"
           id="use1532"
           xlink:href="#path941"
           y="0"
           x="0" />
        <use
           height="100%"
           width="100%"
           transform="translate(31.750001,31.750001)"
           id="use1534"
           xlink:href="#path941"
           y="0"
           x="0" />
      </g>
    </g>
    <text
       xml:space="preserve"
       style="font-style:normal;font-variant:normal;font-weight:bold;font-stretch:normal;font-size:59.04046249px;line-height:7.68756008px;font-family:'DejaVu Sans';-inkscape-font-specification:'DejaVu Sans Bold';letter-spacing:0px;word-spacing:0px;fill:#00ff00;fill-opacity:1;stroke:#800080;stroke-width:1.32291663;stroke-linecap:butt;stroke-linejoin:miter;stroke-miterlimit:4;stroke-dasharray:none;stroke-opacity:1"
       x="12.109086"
       y="149.31744"
       id="text1544"
       transform="scale(0.79361621,1.2600549)"><tspan
         sodipodi:role="line"
         id="tspan1542"
         x="12.109086"
         y="149.31744"
         style="font-style:normal;font-variant:normal;font-weight:bold;font-stretch:normal;font-family:'DejaVu Sans';-inkscape-font-specification:'DejaVu Sans Bold';fill:#00ff00;stroke:#800080;stroke-width:1.32291663;stroke-miterlimit:4;stroke-dasharray:none">$<tspan
   style="font-size:46.85546875px;fill:#00ff00;stroke:#800080;stroke-width:1.32291663;stroke-miterlimit:4;stroke-dasharray:none"
   id="tspan1540">tawkyard</tspan></tspan></text>
  </g>
  <g
     transform="translate(2.1418726,2.3594484)"
     style="display:inline"
     inkscape:label="Stawkyard Blockhead-GreenPurp Fat"
     id="g1606"
     inkscape:groupmode="layer">
    <g
       inkscape:groupmode="layer"
       id="g1568"
       inkscape:label="BG"
       transform="translate(3.5522457,3.0756696)"
       style="display:inline">
      <rect
         style="opacity:1;fill:#2c002c;fill-opacity:1;stroke:#00ff00;stroke-width:11.90625;stroke-linecap:square;stroke-miterlimit:4;stroke-dasharray:none;stroke-dashoffset:660;stroke-opacity:1;paint-order:markers stroke fill"
         id="rect1566"
         width="241.13519"
         height="200.73015"
         x="0.25900668"
         y="0.51800698" />
    </g>
    <g
       style="display:inline"
       transform="translate(24.986408,-67.259966)"
       id="g1610"
       inkscape:groupmode="layer"
       inkscape:label="blockheads fat">
      <path
         sodipodi:nodetypes="ccccccccccccccccccccccccccccccccccccccccccccccccc"
         inkscape:connector-curvature="0"
         id="path1608"
         d="m -2.4550122,112.10531 7.2178919,3.94264 8.5853863,2.51272 1.76394,3.148 3.254453,-0.53985 6.952811,3.03599 12.734524,1.50569 5.423456,4.10572 -1.405571,0.23954 -5.98496,-1.33337 2.446567,5.91927 7.754932,-0.99284 1.521696,7.36689 3.683463,11.06562 -1.116634,5.55312 6.459629,1.06245 6.459637,-1.06245 -1.116631,-5.55312 3.683455,-11.06562 1.521697,-7.36689 7.754936,0.99284 2.446562,-5.91927 -5.984956,1.33337 -1.40557,-0.23954 5.423451,-4.10572 12.734527,-1.50569 6.952806,-3.03599 3.254464,0.53985 1.76393,-3.148 8.58538,-2.51272 7.2179,-3.94264 -10.01352,2.74495 -8.15902,1.28494 -0.85383,2.22924 -3.237745,-0.15645 -8.520337,2.39395 -12.905086,0.16508 -6.714806,3.06099 -6.771818,-1.07792 -2.115426,0.0367 -2.115421,-0.0367 -6.771824,1.07792 -6.714794,-3.06099 -12.905094,-0.16508 -8.520339,-2.39395 -3.237739,0.15645 -0.853826,-2.22924 -8.159021,-1.28494 z"
         style="fill:#00ff00;fill-rule:evenodd;stroke:#800080;stroke-width:0.42703068;stroke-linecap:butt;stroke-linejoin:miter;stroke-miterlimit:4;stroke-dasharray:none;stroke-opacity:1" />
      <use
         x="0"
         y="0"
         xlink:href="#path1608"
         id="use1618"
         transform="translate(85.380609)"
         width="100%"
         height="100%" />
    </g>
    <g
       inkscape:label="blockhead fat"
       inkscape:groupmode="layer"
       id="g1616"
       transform="translate(24.986408,-67.259966)"
       style="display:inline">
      <path
         style="fill:#00ff00;fill-rule:evenodd;stroke:#800080;stroke-width:0.83573818;stroke-linecap:butt;stroke-linejoin:miter;stroke-miterlimit:4;stroke-dasharray:none;stroke-opacity:1"
         d="m -16.646627,83.866736 14.1260755,7.716122 16.8023875,4.917609 3.452194,6.160933 6.369263,-1.05653 13.607288,5.94171 24.922631,2.94676 10.614199,8.03528 -2.750831,0.4688 -11.713114,-2.60952 4.788156,11.58455 15.177111,-1.94308 2.9781,14.41767 7.208874,21.65643 -2.185355,10.86797 12.642086,2.07931 12.642102,-2.07931 -2.18535,-10.86797 7.20886,-21.65643 2.9781,-14.41767 15.17712,1.94308 4.78815,-11.58455 -11.71311,2.60952 -2.75083,-0.4688 10.61419,-8.03528 24.92264,-2.94676 13.60728,-5.94171 6.36928,1.05653 3.45218,-6.160933 16.80238,-4.917609 14.12608,-7.716122 -19.59738,5.372136 -15.96795,2.514731 -1.67102,4.362834 -6.33656,-0.306189 -16.67508,4.685182 -25.25644,0.32308 -13.14149,5.99063 -13.25307,-2.10959 -4.140082,0.0718 -4.140072,-0.0718 -13.253081,2.10959 L 68.857817,100.81851 43.601366,100.49543 26.926281,95.810248 20.58973,96.116437 18.918714,91.753603 2.9507605,89.238872 Z"
         id="path1614"
         inkscape:connector-curvature="0"
         sodipodi:nodetypes="ccccccccccccccccccccccccccccccccccccccccccccccccc" />
    </g>
    <text
       transform="scale(0.79361621,1.2600549)"
       id="text1604"
       y="149.31744"
       x="12.109086"
       style="font-style:normal;font-variant:normal;font-weight:bold;font-stretch:normal;font-size:59.04046249px;line-height:7.68756008px;font-family:'DejaVu Sans';-inkscape-font-specification:'DejaVu Sans Bold';letter-spacing:0px;word-spacing:0px;fill:#00ff00;fill-opacity:1;stroke:#800080;stroke-width:1.32291663;stroke-linecap:butt;stroke-linejoin:miter;stroke-miterlimit:4;stroke-dasharray:none;stroke-opacity:1"
       xml:space="preserve"><tspan
         style="font-style:normal;font-variant:normal;font-weight:bold;font-stretch:normal;font-family:'DejaVu Sans';-inkscape-font-specification:'DejaVu Sans Bold';fill:#00ff00;stroke:#800080;stroke-width:1.32291663;stroke-miterlimit:4;stroke-dasharray:none"
         y="149.31744"
         x="12.109086"
         id="tspan1602"
         sodipodi:role="line">$<tspan
   id="tspan1600"
   style="font-size:46.85546875px;fill:#00ff00;stroke:#800080;stroke-width:1.32291663;stroke-miterlimit:4;stroke-dasharray:none">tawkyard</tspan></tspan></text>
  </g>
</svg>
