<?xml version="1.0" encoding="UTF-8" standalone="no"?>
<!-- Created with Inkscape (http://www.inkscape.org/) -->

<svg
   xmlns:dc="http://purl.org/dc/elements/1.1/"
   xmlns:cc="http://creativecommons.org/ns#"
   xmlns:rdf="http://www.w3.org/1999/02/22-rdf-syntax-ns#"
   xmlns:svg="http://www.w3.org/2000/svg"
   xmlns="http://www.w3.org/2000/svg"
   xmlns:xlink="http://www.w3.org/1999/xlink"
   xmlns:sodipodi="http://sodipodi.sourceforge.net/DTD/sodipodi-0.dtd"
   xmlns:inkscape="http://www.inkscape.org/namespaces/inkscape"
   width="253.04144mm"
   height="212.6364mm"
   viewBox="0 0 253.04145 212.63641"
   version="1.1"
   id="svg8"
   inkscape:version="0.92.2 5c3e80d, 2017-08-06"
   sodipodi:docname="drawing.svg">
  <defs
     id="defs2">
    <inkscape:path-effect
       effect="spiro"
       id="path-effect4540"
       is_visible="true" />
    <inkscape:path-effect
       is_visible="true"
       id="path-effect4536"
       effect="spiro" />
    <inkscape:path-effect
       effect="spiro"
       id="path-effect4519"
       is_visible="true" />
    <inkscape:path-effect
       effect="spiro"
       id="path-effect4514"
       is_visible="true" />
    <inkscape:path-effect
       effect="spiro"
       id="path-effect4510"
       is_visible="true" />
    <inkscape:path-effect
       effect="spiro"
       id="path-effect4506"
       is_visible="true" />
  </defs>
  <sodipodi:namedview
     id="base"
     pagecolor="#2c002c"
     bordercolor="#666666"
     borderopacity="1.0"
     inkscape:pageopacity="1"
     inkscape:pageshadow="2"
     inkscape:zoom="0.5107655"
     inkscape:cx="261.66998"
     inkscape:cy="550.87987"
     inkscape:document-units="mm"
     inkscape:current-layer="layer5"
     showgrid="false"
     inkscape:window-width="1920"
     inkscape:window-height="1016"
     inkscape:window-x="0"
     inkscape:window-y="27"
     inkscape:window-maximized="1"
     fit-margin-top="0"
     fit-margin-left="0"
     fit-margin-right="0"
     fit-margin-bottom="0" />
  <metadata
     id="metadata5">
    <rdf:RDF>
      <cc:Work
         rdf:about="">
        <dc:format>image/svg+xml</dc:format>
        <dc:type
           rdf:resource="http://purl.org/dc/dcmitype/StillImage" />
        <dc:title></dc:title>
      </cc:Work>
    </rdf:RDF>
  </metadata>
  <g
     inkscape:groupmode="layer"
     id="layer5"
     inkscape:label="BG"
     transform="translate(5.6941183,5.435118)">
    <rect
       style="opacity:1;fill:#2c002c;fill-opacity:1;stroke:#00ff00;stroke-width:11.90625;stroke-linecap:square;stroke-miterlimit:4;stroke-dasharray:none;stroke-dashoffset:660;stroke-opacity:1;paint-order:markers stroke fill"
       id="rect4571"
       width="241.13519"
       height="200.73015"
       x="0.25900668"
       y="0.51800698" />
  </g>
  <g
     inkscape:label="Layer 1"
     inkscape:groupmode="layer"
     id="layer1"
     transform="translate(27.128281,-64.900518)"
     style="display:none">
    <path
       style="fill:#aa0000;fill-rule:evenodd;stroke:#ffff00;stroke-width:1.13095415;stroke-linecap:butt;stroke-linejoin:miter;stroke-miterlimit:4;stroke-dasharray:none;stroke-opacity:1"
       d="m -203.87613,13.417947 c 16.36688,-2.24154 33.37158,0.400877 48.28645,7.503393 5.4259,2.583834 10.56376,5.73306 15.93212,8.434422 5.36835,2.701362 11.05136,4.97438 17.02531,5.628982 6.91327,0.757529 13.85312,-0.679379 20.69418,-1.931188 6.71705,-1.229117 13.486353,-2.288236 20.310973,-2.520706 1.915389,-0.06525 3.833001,-0.06525 5.74839,0 l -0.76646,102.78881 c -6.041044,1.14789 -12.43593,0.35237 -18.01161,-2.24063 -1.400204,-0.65117 -2.764191,-1.4229 -3.886856,-2.4832 -1.122664,-1.06029 -1.995207,-2.43468 -2.244757,-3.9586 -0.17499,-1.06864 -0.0391,-2.17369 0.2888,-3.20573 0.32788,-1.03204 0.842962,-1.99624 1.429127,-2.90674 1.172332,-1.82102 2.639352,-3.45382 3.647236,-5.37075 1.985193,-3.77571 1.992108,-8.36148 0.807378,-12.45945 -1.184729,-4.097973 -3.465296,-7.78873 -5.915901,-11.280364 -2.4506,-3.491634 -5.10622,-6.85662 -7.17958,-10.584643 -2.07335,-3.728023 -3.55979,-7.904943 -3.42415,-12.168576 0.12378,-3.890742 1.64154,-7.722701 4.21548,-10.642982 -9.41323,4.98417 -21.33746,4.875234 -30.65806,-0.280081 -0.78552,-0.434481 -1.55287,-0.901823 -2.29936,-1.400394 6.36427,-3.28192 13.24534,-5.559198 20.31097,-6.721884 1.39892,-0.2302 2.80498,-0.417038 4.21548,-0.560154 -10.99388,0.49008 -22.11648,-2.45779 -31.42451,-8.328572 -5.09186,-3.21155 -9.61387,-7.244338 -14.56259,-10.672346 -4.32756,-2.997725 -8.97346,-5.525707 -13.79612,-7.636655 -5.54582,-2.427486 -11.33143,-4.306766 -17.24516,-5.60157 z"
       id="path4517"
       inkscape:connector-curvature="0"
       inkscape:path-effect="#path-effect4519"
       inkscape:original-d="m -203.87613,13.417947 c 0,0 33.34091,4.235617 48.28645,7.503393 14.94554,3.267776 23.37705,7.714764 32.95743,14.063404 9.58038,6.348638 14.56284,-0.904426 20.69418,-1.931188 6.131353,-1.02676 13.540913,-1.680663 20.310973,-2.520706 6.77006,-0.840042 5.74839,0 5.74839,0 l -0.76646,102.78881 c 0,0 -12.00747,-1.49394 -18.01161,-2.24063 -6.004133,-0.74668 -4.08748,-4.29472 -6.131613,-6.4418 -2.04414,-2.14707 3.577043,-7.65567 5.365163,-11.48322 1.78812,-3.82754 -10.474573,-30.995553 -15.712253,-46.493033 -5.23769,-15.497485 4.21548,-10.642982 4.21548,-10.642982 0,0 -20.43845,-0.186913 -30.65806,-0.280081 -10.21963,-0.09316 -2.29936,-1.400394 -2.29936,-1.400394 0,0 13.54091,-4.481444 20.31097,-6.721884 6.77006,-2.240432 4.21548,-0.560154 4.21548,-0.560154 0,0 -22.09909,-5.808059 -31.42451,-8.328572 -9.32543,-2.520512 -10.47458,-7.498315 -14.56259,-10.672346 -4.088,-3.17403 -7.79198,-2.408715 -13.79612,-7.636655 -6.00414,-5.227938 -11.49651,-3.734572 -17.24516,-5.60157 15.71199,-2.147075 -11.49678,-1.400392 -11.49678,-1.400392 z"
       sodipodi:nodetypes="cssssccscsscscccssscc" />
  </g>
  <g
     transform="translate(27.128281,-64.900518)"
     id="g4532"
     inkscape:groupmode="layer"
     inkscape:label="Bullhead"
     style="display:none">
    <path
       style="fill:#0000ff;fill-rule:evenodd;stroke:#000080;stroke-width:1.05607569;stroke-linecap:butt;stroke-linejoin:miter;stroke-miterlimit:4;stroke-dasharray:none;stroke-opacity:1"
       d="m 99.925361,97.34667 c -1.758037,-0.06198 -3.517729,-0.06198 -5.275767,0 -6.26397,0.220849 -12.477104,1.227091 -18.642338,2.394767 -6.279058,1.189233 -12.648944,2.554283 -18.99428,1.834623 C 51.529793,100.95417 46.313649,98.794651 41.386311,96.228326 36.458968,93.662 31.742971,90.670003 26.762812,88.21533 16.067813,82.943867 4.202265,80.258736 -7.640424,80.351578 c -3.315953,0.02599 -6.630299,0.269591 -9.916431,0.735417 l 10.5524825,1.330427 c 5.4279137,1.230079 10.7380281,3.015564 15.82825,5.321705 4.4264705,2.005425 8.6911225,4.407121 12.6631685,7.254996 4.542179,3.256648 8.69254,7.087727 13.366096,10.138757 8.543365,5.57734 18.752166,8.37796 28.842885,7.91238 -1.294622,0.13596 -2.584958,0.31348 -3.868961,0.53217 -6.485183,1.10457 -12.801376,3.26769 -18.642812,6.38556 0.685165,0.47365 1.389695,0.91766 2.110685,1.33042 8.554905,4.8976 19.499556,5.00109 28.139479,0.26608 -2.362486,2.7743 -3.755826,6.415 -3.869433,10.11125 -0.124497,4.05049 1.240232,8.0183 3.143264,11.55998 1.903028,3.54166 4.340324,6.73868 6.589608,10.05577 2.249284,3.3171 4.342516,6.82344 5.429919,10.71656 1.087401,3.89312 1.081231,8.2494 -0.740877,11.83637 -0.925084,1.8211 -2.271666,3.37226 -3.347688,5.10225 -0.538012,0.86499 -1.011002,1.78105 -1.311948,2.7615 -0.300949,0.98045 -0.425757,2.03052 -0.265139,3.04574 0.22905,1.44775 1.029972,2.75325 2.060408,3.76054 1.030439,1.0073 2.282596,1.74032 3.567772,2.35894 5.117633,2.46338 11.250697,3.17367 16.795461,2.08316 m 0,0 c 5.544765,1.09051 12.557495,0.38022 17.675125,-2.08316 1.28517,-0.61862 2.53734,-1.35164 3.56777,-2.35894 1.03045,-1.00729 1.83136,-2.31279 2.06041,-3.76054 0.16061,-1.01522 0.0359,-2.06529 -0.26514,-3.04574 -0.30094,-0.98045 -0.77393,-1.89651 -1.31194,-2.7615 -1.07602,-1.72999 -2.42261,-3.28115 -3.34769,-5.10225 -1.82211,-3.58697 -1.82828,-7.94325 -0.74088,-11.83637 1.0874,-3.89312 3.18065,-7.39946 5.42993,-10.71656 2.24928,-3.31709 4.68657,-6.51411 6.5896,-10.05577 1.90302,-3.54168 3.26777,-7.50949 3.14326,-11.55998 -0.11359,-3.69625 -1.50694,-7.33695 -3.86943,-10.11125 8.63991,4.73501 19.58458,4.63152 28.13948,-0.26608 0.72099,-0.41276 1.42552,-0.85677 2.11068,-1.33042 -5.84144,-3.11787 -12.15762,-5.28099 -18.64281,-6.38556 -1.284,-0.21869 -2.57434,-0.39621 -3.86896,-0.53217 10.09072,0.46558 20.29952,-2.33504 28.84288,-7.91238 4.67356,-3.05103 8.82392,-6.882109 13.36611,-10.138757 3.97204,-2.847875 8.23669,-5.249571 12.66316,-7.254996 5.09022,-2.306141 10.40035,-4.091626 15.82825,-5.321705 l 10.55248,-1.330427 c -15.02232,-2.12949 -30.63007,0.380861 -44.31967,7.128335 -4.98015,2.454673 -9.69615,5.44667 -14.6235,8.012996 -4.92734,2.566325 -10.14348,4.725844 -15.62666,5.347734 -6.34534,0.71966 -12.71522,-0.64539 -18.99428,-1.834623 -6.16523,-1.167676 -12.37837,-2.173918 -18.64234,-2.394767 -1.75803,-0.06198 -3.5182,-0.06198 -5.276239,0"
       id="path4534"
       inkscape:connector-curvature="0"
       sodipodi:nodetypes="ccsssssccssscccccsssssccscscccccccssccscccscsssccsssscc" />
  </g>
  <g
     style="display:inline"
     inkscape:label="Bullheads"
     inkscape:groupmode="layer"
     id="g4560"
     transform="translate(27.128281,-64.900518)">
    <path
       sodipodi:nodetypes="ccsssssccssscccccsssssccscscccccccssccscccscsssccsssscc"
       inkscape:connector-curvature="0"
       id="path4558"
       d="m 83.321571,115.34338 c -1.309787,0.3171 -2.605265,0.67117 -3.883987,1.06153 -4.556145,1.39089 -8.877979,3.23565 -13.124063,5.16613 -4.324491,1.96615 -8.671775,4.05447 -13.523587,4.90596 -4.192597,0.73582 -8.574062,0.50929 -12.844892,-0.0157 -4.270842,-0.52499 -8.492794,-1.34406 -12.774517,-1.79246 -9.19511,-0.96293 -18.6035927,-0.1621 -27.29885334,2.27565 -2.43468156,0.68259 -4.81361456,1.49341 -7.11606746,2.42987 l 8.10220538,-1.33714 c 4.30436562,-0.36529 8.66125542,-0.37873 12.98677042,-0.0402 3.761486,0.29434 7.503178,0.8554 11.141306,1.73899 4.160339,1.01041 8.176212,2.43911 12.381722,3.30159 7.687762,1.57662 15.905512,1.17739 23.217539,-1.12811 -0.919005,0.34083 -1.824447,0.70536 -2.714897,1.09293 -4.497468,1.95762 -8.605151,4.5067 -12.123979,7.52442 0.62313,0.14206 1.253128,0.26263 1.88747,0.3612 7.525851,1.17264 15.609196,-0.9684 20.782859,-5.50478 -1.043766,2.1147 -1.156862,4.54635 -0.313895,6.75333 0.92375,2.41849 2.923142,4.48846 5.211997,6.19833 2.288856,1.70986 4.884658,3.10856 7.372126,4.61608 2.487496,1.50747 4.90753,3.1582 6.684046,5.23987 1.776491,2.08165 2.864015,4.65701 2.421808,7.14319 -0.224523,1.26222 -0.827016,2.44977 -1.185484,3.68852 -0.179186,0.61938 -0.297818,1.25585 -0.273583,1.89576 0.02423,0.6399 0.195589,1.28548 0.568331,1.85308 0.531559,0.80938 1.448469,1.41965 2.459583,1.80752 1.011137,0.38783 2.116715,0.56907 3.217948,0.67604 4.385132,0.42589 9.078343,-0.38844 12.887003,-2.1485 m 0,0 c 4.35544,-0.47129 9.34013,-2.30202 12.49019,-4.78736 0.79105,-0.62414 1.52914,-1.30923 2.03522,-2.1118 0.50615,-0.80252 0.76846,-1.73511 0.57414,-2.63668 -0.13628,-0.6322 -0.4913,-1.22759 -0.95874,-1.74639 -0.46734,-0.51877 -1.0452,-0.96491 -1.65813,-1.36778 -1.22584,-0.80575 -2.60607,-1.45139 -3.74364,-2.34134 -2.24066,-1.75293 -3.33727,-4.3258 -3.5127,-6.84506 -0.17541,-2.51926 0.48661,-5.01233 1.31097,-7.425 0.82431,-2.41266 1.81721,-4.7922 2.33038,-7.26787 0.51313,-2.47569 0.52317,-5.0949 -0.58391,-7.46327 -1.01024,-2.16127 -2.94869,-4.0322 -5.38342,-5.19618 7.54767,1.05947 15.57917,-1.20387 20.64948,-5.81921 0.42733,-0.38898 0.83469,-0.7931 1.22035,-1.21084 -5.08207,-0.667 -10.2743,-0.6743 -15.32555,-0.0221 -1.0001,0.12913 -1.99454,0.28387 -2.98174,0.46402 7.54548,-1.75527 14.35908,-5.46428 19.25049,-10.47898 2.6758,-2.74322 4.77087,-5.8421 7.29843,-8.680397 2.21027,-2.48204 4.74781,-4.759287 7.50382,-6.834967 3.16931,-2.386897 6.63101,-4.510407 10.31865,-6.329417 l 7.43521,-2.909417 c -11.59326,1.76433 -22.45436,6.388157 -30.84109,13.129731 -3.05098,2.45255 -5.77284,5.169437 -8.75699,7.677327 -2.98412,2.50789 -6.28287,4.8335 -10.16365,6.30424 -4.49104,1.702 -9.52272,2.17708 -14.44348,2.73779 -4.831566,0.55052 -9.65791,1.2061 -14.324781,2.33599 -1.309798,0.31712 -2.605621,0.67128 -3.884351,1.06166"
       style="fill:#00ff00;fill-rule:evenodd;stroke:#800080;stroke-width:1.32291663;stroke-linecap:butt;stroke-linejoin:miter;stroke-miterlimit:4;stroke-dasharray:none;stroke-opacity:1" />
    <use
       x="0"
       y="0"
       xlink:href="#path4558"
       id="use4564"
       transform="translate(15.32053,12.29689)"
       width="100%"
       height="100%"
       style="fill:#00ff00;stroke:#800080;stroke-width:1.32291663;stroke-miterlimit:4;stroke-dasharray:none" />
    <use
       x="0"
       y="0"
       xlink:href="#use4564"
       id="use4566"
       transform="translate(15.32053,12.29689)"
       width="100%"
       height="100%"
       style="fill:#00ff00;stroke:#800080;stroke-width:1.32291663;stroke-miterlimit:4;stroke-dasharray:none" />
  </g>
  <g
     inkscape:groupmode="layer"
     id="layer4"
     inkscape:label="Stawkyard"
     style="display:inline"
     transform="translate(2.1418726,2.3594484)">
    <text
       xml:space="preserve"
       style="font-style:normal;font-variant:normal;font-weight:bold;font-stretch:normal;font-size:59.04046249px;line-height:7.68756008px;font-family:'DejaVu Sans';-inkscape-font-specification:'DejaVu Sans Bold';letter-spacing:0px;word-spacing:0px;fill:#00ff00;fill-opacity:1;stroke:#800080;stroke-width:1.32291663;stroke-linecap:butt;stroke-linejoin:miter;stroke-miterlimit:4;stroke-dasharray:none;stroke-opacity:1"
       x="11.649609"
       y="149.31744"
       id="text4546"
       transform="scale(0.79361621,1.2600549)"><tspan
         sodipodi:role="line"
         id="tspan4544"
         x="11.649609"
         y="149.31744"
         style="font-style:normal;font-variant:normal;font-weight:bold;font-stretch:normal;font-family:'DejaVu Sans';-inkscape-font-specification:'DejaVu Sans Bold';fill:#00ff00;stroke:#800080;stroke-width:1.32291663;stroke-miterlimit:4;stroke-dasharray:none">$<tspan
   style="font-size:46.85546875px;fill:#00ff00;stroke:#800080;stroke-width:1.32291663;stroke-miterlimit:4;stroke-dasharray:none"
   id="tspan4548">tawkyard</tspan></tspan></text>
  </g>
</svg>
